<mxfile host="65bd71144e">
    <diagram id="F2-Fp4XBxEdl-isgCpHq" name="ページ1">
        <mxGraphModel dx="1351" dy="844" grid="1" gridSize="10" guides="1" tooltips="1" connect="1" arrows="1" fold="1" page="1" pageScale="1" pageWidth="827" pageHeight="1169" math="0" shadow="0">
            <root>
                <mxCell id="0"/>
                <mxCell id="1" parent="0"/>
                <mxCell id="26" value="" style="group" parent="1" vertex="1" connectable="0">
                    <mxGeometry x="50" y="20" width="1000" height="500" as="geometry"/>
                </mxCell>
                <mxCell id="3" value="" style="rounded=0;whiteSpace=wrap;html=1;" parent="26" vertex="1">
                    <mxGeometry x="310" y="20" width="690" height="480" as="geometry"/>
                </mxCell>
                <mxCell id="5" value="" style="endArrow=classic;html=1;exitX=1;exitY=0.5;exitDx=0;exitDy=0;exitPerimeter=0;entryX=-0.018;entryY=0.221;entryDx=0;entryDy=0;entryPerimeter=0;" parent="26" target="3" edge="1">
                    <mxGeometry width="50" height="50" relative="1" as="geometry">
                        <mxPoint x="90" y="125" as="sourcePoint"/>
                        <mxPoint x="390" y="190" as="targetPoint"/>
                    </mxGeometry>
                </mxCell>
                <mxCell id="6" value="&lt;font style=&quot;font-size: 20px&quot;&gt;ssh&lt;/font&gt;" style="text;html=1;align=center;verticalAlign=middle;resizable=0;points=[];autosize=1;strokeColor=none;fillColor=none;" parent="26" vertex="1">
                    <mxGeometry x="150" y="90" width="50" height="20" as="geometry"/>
                </mxCell>
                <mxCell id="7" value="" style="sketch=0;outlineConnect=0;dashed=0;verticalLabelPosition=bottom;verticalAlign=top;align=center;html=1;fontSize=12;fontStyle=0;aspect=fixed;pointerEvents=1;shape=mxgraph.aws4.client;fillColor=#000000;gradientColor=none;strokeColor=#666666;" parent="26" vertex="1">
                    <mxGeometry y="80" width="78" height="76" as="geometry"/>
                </mxCell>
                <mxCell id="10" value="Gitlab" style="rounded=0;whiteSpace=wrap;html=1;fontSize=20;strokeColor=#36393D;fillColor=none;gradientColor=none;" parent="26" vertex="1">
                    <mxGeometry x="330" y="400" width="410" height="60" as="geometry"/>
                </mxCell>
                <mxCell id="11" value="mkdocs page" style="rounded=0;whiteSpace=wrap;html=1;fontSize=20;strokeColor=#36393D;fillColor=none;gradientColor=none;" parent="26" vertex="1">
                    <mxGeometry x="540" y="260" width="200" height="60" as="geometry"/>
                </mxCell>
                <mxCell id="12" value="dokku" style="rounded=0;whiteSpace=wrap;html=1;fontSize=20;strokeColor=#36393D;fillColor=none;gradientColor=none;" parent="26" vertex="1">
                    <mxGeometry x="750" y="400" width="220" height="60" as="geometry"/>
                </mxCell>
                <mxCell id="13" value="VCS" style="rounded=0;whiteSpace=wrap;html=1;fontSize=20;strokeColor=#36393D;fillColor=none;gradientColor=none;" parent="26" vertex="1">
                    <mxGeometry x="330" y="330" width="190" height="60" as="geometry"/>
                </mxCell>
                <mxCell id="14" value="Streamlit&lt;br&gt;page" style="rounded=0;whiteSpace=wrap;html=1;fontSize=20;strokeColor=#36393D;fillColor=none;gradientColor=none;" parent="26" vertex="1">
                    <mxGeometry x="750" y="330" width="220" height="60" as="geometry"/>
                </mxCell>
                <mxCell id="18" value="GItlab pages" style="rounded=0;whiteSpace=wrap;html=1;fontSize=20;strokeColor=#36393D;fillColor=none;gradientColor=none;" parent="26" vertex="1">
                    <mxGeometry x="540" y="330" width="200" height="60" as="geometry"/>
                </mxCell>
                <mxCell id="20" value="&lt;font style=&quot;font-size: 25px&quot;&gt;&lt;b&gt;&lt;u&gt;Developer&lt;/u&gt;&lt;/b&gt;&lt;/font&gt;" style="text;html=1;align=center;verticalAlign=middle;resizable=0;points=[];autosize=1;strokeColor=none;fillColor=none;" parent="26" vertex="1">
                    <mxGeometry x="45" width="140" height="20" as="geometry"/>
                </mxCell>
                <mxCell id="21" value="&lt;font style=&quot;font-size: 25px&quot;&gt;&lt;b&gt;&lt;u&gt;User&lt;/u&gt;&lt;/b&gt;&lt;/font&gt;" style="text;html=1;align=center;verticalAlign=middle;resizable=0;points=[];autosize=1;strokeColor=none;fillColor=none;" parent="26" vertex="1">
                    <mxGeometry x="80" y="240" width="70" height="20" as="geometry"/>
                </mxCell>
                <mxCell id="22" value="" style="endArrow=classic;html=1;exitX=1;exitY=0.5;exitDx=0;exitDy=0;exitPerimeter=0;entryX=-0.018;entryY=0.221;entryDx=0;entryDy=0;entryPerimeter=0;" parent="26" edge="1">
                    <mxGeometry width="50" height="50" relative="1" as="geometry">
                        <mxPoint x="90" y="365" as="sourcePoint"/>
                        <mxPoint x="297.5799999999999" y="366.0799999999999" as="targetPoint"/>
                    </mxGeometry>
                </mxCell>
                <mxCell id="23" value="&lt;font style=&quot;font-size: 20px&quot;&gt;https&lt;/font&gt;" style="text;html=1;align=center;verticalAlign=middle;resizable=0;points=[];autosize=1;strokeColor=none;fillColor=none;" parent="26" vertex="1">
                    <mxGeometry x="145" y="330" width="60" height="20" as="geometry"/>
                </mxCell>
                <mxCell id="24" value="" style="sketch=0;outlineConnect=0;dashed=0;verticalLabelPosition=bottom;verticalAlign=top;align=center;html=1;fontSize=12;fontStyle=0;aspect=fixed;pointerEvents=1;shape=mxgraph.aws4.client;fillColor=#000000;gradientColor=none;strokeColor=#666666;" parent="26" vertex="1">
                    <mxGeometry y="320" width="78" height="76" as="geometry"/>
                </mxCell>
                <mxCell id="25" value="" style="endArrow=none;html=1;exitX=1;exitY=0.5;exitDx=0;exitDy=0;exitPerimeter=0;entryX=-0.018;entryY=0.221;entryDx=0;entryDy=0;entryPerimeter=0;startArrow=classic;startFill=1;endFill=0;" parent="26" edge="1">
                    <mxGeometry width="50" height="50" relative="1" as="geometry">
                        <mxPoint x="90" y="396" as="sourcePoint"/>
                        <mxPoint x="297.5799999999999" y="397.0799999999999" as="targetPoint"/>
                    </mxGeometry>
                </mxCell>
                <mxCell id="27" value="" style="outlineConnect=0;dashed=0;verticalLabelPosition=bottom;verticalAlign=top;align=center;html=1;shape=mxgraph.aws3.cloud_2;fillColor=#F58534;gradientColor=none;" vertex="1" parent="26">
                    <mxGeometry x="326" y="35" width="75" height="75" as="geometry"/>
                </mxCell>
            </root>
        </mxGraphModel>
    </diagram>
</mxfile>